<?xml version="1.0" standalone="no"?>
<!DOCTYPE svg PUBLIC "-//W3C//DTD SVG 20010904//EN"
 "http://www.w3.org/TR/2001/REC-SVG-20010904/DTD/svg10.dtd">
<svg version="1.0" xmlns="http://www.w3.org/2000/svg"
 width="1280.000000pt" height="720.000000pt" viewBox="0 0 1280.000000 720.000000"
 preserveAspectRatio="xMidYMid meet">

<g transform="translate(0.000000,720.000000) scale(0.100000,-0.100000)"
fill="#000000" stroke="none">
<path d="M1283 4733 c-10 -16 -21 -31 -26 -34 -4 -3 -49 0 -100 7 -229 33
-423 -3 -520 -94 -97 -91 -121 -257 -56 -383 28 -55 103 -128 162 -157 26 -13
96 -32 155 -43 123 -22 195 -44 212 -64 18 -21 -27 -30 -150 -30 -138 1 -208
24 -265 91 -114 131 -131 147 -153 140 -12 -4 -25 -18 -28 -31 -7 -27 88 -319
113 -347 33 -37 83 -11 83 44 0 25 3 29 18 23 34 -13 168 -43 223 -50 65 -7
177 13 236 43 68 35 140 108 174 177 29 60 31 70 27 144 -4 71 -9 87 -46 152
-23 39 -42 82 -42 95 0 13 23 85 50 160 28 75 50 140 50 144 0 19 -34 40 -65
40 -27 0 -39 -6 -52 -27z m-209 -171 c59 -28 107 -74 93 -89 -4 -3 -66 11
-139 31 -73 20 -150 41 -170 47 -53 14 -55 26 -6 38 69 16 151 6 222 -27z"/>
<path d="M11863 4733 c-10 -16 -21 -31 -26 -34 -4 -3 -49 0 -100 7 -228 33
-406 1 -516 -92 -72 -60 -109 -175 -92 -282 12 -76 41 -132 96 -187 59 -59
126 -91 232 -111 119 -22 218 -51 232 -68 10 -12 6 -16 -26 -25 -53 -15 -178
-13 -240 3 -84 22 -133 56 -187 127 -60 79 -89 102 -116 94 -37 -12 -34 -48
20 -207 57 -171 74 -197 117 -182 23 8 29 16 31 48 3 31 6 36 20 31 29 -11
175 -43 228 -50 156 -20 339 80 405 220 49 102 34 230 -39 333 -12 16 -22 42
-22 56 0 14 23 87 50 162 28 75 50 140 50 144 0 19 -34 40 -65 40 -27 0 -39
-6 -52 -27z m-207 -172 c57 -27 105 -73 91 -87 -3 -4 -66 10 -139 30 -73 20
-150 41 -170 47 -53 14 -55 26 -6 38 67 16 154 5 224 -28z"/>
<path d="M8090 4728 c-6 -7 -17 -22 -24 -32 -13 -19 -16 -19 -92 -3 -126 26
-174 30 -263 17 -101 -14 -146 -30 -226 -83 -73 -47 -128 -114 -156 -187 -26
-69 -28 -233 -4 -324 34 -128 124 -235 230 -275 125 -47 291 -51 400 -10 99
37 182 131 205 233 12 56 7 82 -22 97 -27 15 -47 -5 -104 -103 -68 -118 -129
-136 -160 -46 -15 45 -34 225 -34 328 0 133 31 250 66 250 62 0 127 -102 126
-196 0 -50 2 -56 25 -67 22 -10 28 -8 44 11 52 65 89 329 53 380 -17 24 -47
29 -64 10z"/>
<path d="M10020 4705 c-268 -57 -400 -202 -400 -438 1 -222 156 -399 397 -453
60 -13 104 -16 207 -11 278 12 457 100 539 266 31 63 32 70 32 191 0 121 -1
128 -33 192 -55 112 -177 203 -327 244 -83 22 -328 28 -415 9z m234 -121 c38
-38 51 -120 51 -329 0 -227 -14 -301 -62 -332 -25 -16 -26 -16 -44 5 -47 59
-75 366 -46 518 27 142 57 183 101 138z"/>
<path d="M1593 4691 c-32 -32 19 -67 117 -81 41 -6 81 -17 89 -25 12 -12 16
-66 18 -297 2 -156 4 -296 5 -311 1 -46 -21 -59 -112 -66 -69 -5 -85 -10 -97
-27 -12 -18 -11 -24 9 -49 l22 -28 105 7 c58 4 287 7 509 7 221 0 413 4 426 9
28 10 38 39 61 159 21 116 20 174 -4 195 -27 24 -58 12 -75 -28 -32 -77 -242
-216 -327 -216 -30 0 -39 4 -39 18 0 22 33 306 36 310 1 2 22 -5 47 -16 34
-15 49 -30 66 -64 11 -24 21 -58 21 -75 0 -23 6 -33 21 -38 33 -11 57 22 74
100 19 90 19 125 -1 153 -23 34 -59 44 -151 43 l-81 -1 -7 73 c-4 39 -5 88 -3
107 3 34 4 35 43 32 116 -9 205 -61 226 -133 27 -88 86 -89 108 -2 23 88 25
184 4 223 l-18 35 -539 0 c-443 0 -542 -2 -553 -14z"/>
<path d="M4624 4689 c-29 -32 -6 -65 58 -84 l53 -15 23 -67 c45 -130 161 -352
276 -530 64 -99 125 -188 136 -198 31 -28 68 -11 140 63 124 126 277 365 355
556 25 61 53 128 62 149 13 30 24 39 57 49 53 15 66 25 66 53 0 43 -20 48
-157 41 -71 -3 -145 -6 -165 -6 -49 0 -83 -31 -68 -61 6 -11 23 -25 38 -32 35
-15 42 -25 42 -64 0 -78 -83 -270 -113 -260 -22 7 -123 214 -141 288 -5 25 -3
27 37 33 73 12 111 54 75 83 -8 6 -162 13 -385 16 -356 5 -372 4 -389 -14z"/>
<path d="M6120 4695 c-16 -19 -5 -62 18 -69 10 -4 49 -8 87 -11 39 -2 75 -10
82 -18 20 -20 26 -642 7 -658 -8 -6 -51 -16 -96 -21 -63 -8 -87 -15 -101 -30
-15 -18 -16 -23 -4 -42 14 -21 19 -21 453 -22 379 -1 441 1 457 14 42 37 -3
77 -100 87 -38 4 -75 11 -83 15 -13 7 -15 51 -14 330 1 254 4 324 15 330 7 5
40 11 73 15 92 10 128 41 91 79 -22 22 -867 23 -885 1z"/>
<path d="M8470 4695 c-16 -19 -5 -62 18 -69 9 -3 48 -8 87 -11 38 -3 75 -11
83 -18 19 -20 24 -642 6 -658 -8 -6 -51 -15 -96 -21 -64 -7 -87 -14 -101 -30
-15 -18 -16 -23 -4 -42 14 -21 19 -21 456 -22 410 -1 442 0 457 17 37 41 -5
73 -111 85 -99 11 -90 -21 -89 344 1 257 4 324 14 330 8 5 41 11 74 15 92 10
128 41 91 79 -22 22 -867 23 -885 1z"/>
<path d="M3098 4690 c-25 -15 -23 -66 2 -80 11 -6 52 -10 91 -9 51 1 74 -2 80
-12 6 -8 7 -64 2 -139 -9 -142 -9 -185 -3 -358 6 -145 7 -144 -98 -162 -76
-13 -112 -32 -112 -59 0 -42 15 -44 393 -48 199 -3 381 -5 403 -6 47 -2 74 15
74 48 0 33 -28 52 -95 65 -88 17 -84 14 -74 57 5 21 9 77 10 126 0 48 4 87 8
87 21 0 90 -62 105 -95 10 -20 29 -82 43 -138 14 -59 32 -110 44 -122 17 -17
36 -19 224 -22 235 -3 258 1 253 49 -3 30 -10 36 -66 64 -51 24 -73 42 -111
95 -44 59 -135 152 -220 226 l-34 30 31 21 c111 79 91 230 -42 319 -95 64
-112 67 -521 70 -247 2 -376 0 -387 -7z m723 -126 c91 -46 140 -178 83 -225
-13 -10 -129 -8 -138 3 -2 1 -6 59 -10 126 l-7 124 23 -7 c13 -4 35 -14 49
-21z"/>
<path d="M3294 3588 c-39 -47 -105 -188 -102 -218 4 -31 43 -38 86 -16 71 37
202 178 202 218 0 25 -55 48 -114 48 -38 0 -48 -5 -72 -32z"/>
<path d="M11213 3323 c-10 -16 -21 -31 -26 -34 -4 -3 -49 0 -100 7 -312 44
-534 -34 -594 -210 -41 -122 -10 -260 80 -350 63 -62 126 -91 253 -116 127
-24 198 -45 214 -65 27 -33 -166 -48 -267 -21 -85 23 -133 56 -190 130 -61 80
-86 100 -113 91 -37 -12 -34 -48 20 -207 58 -172 75 -197 117 -182 23 8 29 16
31 47 3 34 6 37 25 31 249 -80 409 -61 548 64 104 93 137 228 85 353 -12 31
-32 70 -44 87 -12 16 -22 42 -22 56 0 14 23 87 50 162 28 75 50 140 50 144 0
19 -34 40 -65 40 -27 0 -39 -6 -52 -27z m-211 -171 c61 -27 110 -73 95 -88 -3
-4 -66 10 -139 30 -73 20 -150 41 -170 47 -53 14 -55 26 -6 38 68 16 146 7
220 -27z"/>
<path d="M4900 3318 c-6 -7 -17 -22 -24 -32 -13 -19 -15 -19 -97 -1 -96 22
-237 25 -317 7 -126 -28 -258 -125 -306 -225 -63 -129 -49 -349 29 -483 35
-60 117 -130 181 -153 124 -47 289 -51 398 -11 104 39 193 147 211 257 5 34 3
45 -14 62 -12 12 -25 21 -29 21 -15 0 -48 -43 -90 -116 -65 -113 -128 -129
-158 -42 -37 107 -42 426 -9 521 20 57 35 65 80 44 47 -22 88 -108 87 -182 0
-45 3 -57 20 -66 44 -23 71 19 99 155 23 113 25 204 3 234 -17 24 -47 29 -64
10z"/>
<path d="M8620 3318 c-6 -7 -17 -22 -24 -32 -13 -19 -15 -19 -97 -1 -226 49
-406 11 -541 -113 -99 -92 -134 -204 -117 -373 14 -140 53 -225 139 -302 83
-75 231 -116 377 -103 142 12 252 80 305 188 38 79 45 131 19 157 -12 12 -25
21 -29 21 -15 0 -48 -43 -90 -116 -65 -113 -128 -129 -158 -42 -15 45 -34 225
-34 328 0 133 31 250 66 250 62 0 127 -102 126 -195 0 -45 3 -57 20 -66 44
-23 71 19 99 155 23 113 25 204 3 234 -17 24 -47 29 -64 10z"/>
<path d="M6190 3299 c-47 -4 -135 -7 -197 -8 -102 -1 -113 -3 -123 -21 -20
-37 12 -67 92 -84 30 -7 83 -48 99 -78 16 -30 29 -78 21 -78 -4 0 -63 46 -132
103 -69 56 -145 116 -170 132 l-43 30 -217 0 c-190 0 -219 -2 -243 -18 -35
-23 -36 -61 -1 -83 21 -14 34 -16 80 -7 53 9 56 9 79 -18 18 -23 25 -46 32
-116 10 -107 8 -411 -4 -473 -9 -45 -9 -45 -69 -61 -33 -9 -70 -22 -82 -28
-27 -14 -29 -56 -4 -70 9 -5 125 -8 258 -7 188 1 245 4 257 15 41 33 2 81 -83
101 -78 19 -123 86 -145 214 -5 32 -4 38 7 29 7 -5 91 -72 186 -147 199 -158
325 -246 351 -246 11 0 30 13 44 30 22 26 26 42 32 142 4 62 8 229 8 371 2
219 4 258 17 261 8 3 38 7 66 11 77 10 110 47 84 96 -12 21 -41 22 -200 8z"/>
<path d="M9360 3295 c-216 -43 -354 -157 -389 -323 -47 -223 51 -425 254 -522
107 -51 187 -64 344 -57 273 12 453 101 534 266 31 63 32 70 32 191 0 114 -2
130 -27 182 -47 100 -153 192 -269 234 -123 43 -342 57 -479 29z m226 -113
c45 -29 69 -184 61 -397 -6 -170 -24 -246 -62 -271 -20 -13 -28 -14 -40 -4
-39 33 -71 246 -62 419 10 192 49 289 103 253z"/>
<path d="M1969 3295 c-3 -2 -178 -5 -390 -6 -211 -1 -390 -4 -397 -7 -30 -11
-42 -60 -43 -177 -1 -99 2 -119 17 -136 25 -28 76 -22 89 10 37 90 50 105 118
139 83 42 180 55 191 27 3 -10 1 -84 -5 -164 -9 -110 -9 -183 -1 -296 7 -84 8
-153 3 -158 -5 -5 -50 -15 -99 -22 -50 -8 -100 -19 -112 -25 -27 -15 -27 -65
1 -80 20 -11 37 -11 274 6 98 7 401 6 450 -1 17 -2 72 -5 123 -6 99 -1 122 7
122 46 0 35 -33 56 -107 67 -37 6 -85 15 -105 20 -45 10 -44 9 -27 196 6 77 7
170 1 272 -5 85 -6 158 -3 162 4 5 32 1 63 -7 98 -25 192 -89 215 -145 31 -74
66 -88 110 -44 25 25 25 26 18 137 -7 127 -18 173 -45 187 -18 10 -452 15
-461 5z"/>
<path d="M2653 3282 c-18 -19 -16 -28 12 -50 15 -12 55 -24 102 -31 43 -6 85
-18 93 -26 12 -13 15 -65 18 -298 1 -155 3 -295 4 -310 1 -46 -21 -59 -112
-66 -69 -5 -85 -10 -97 -27 -12 -18 -11 -24 8 -48 l22 -28 111 8 c61 4 290 6
510 6 219 0 409 3 421 8 26 10 38 40 60 159 21 116 20 174 -4 195 -27 24 -58
12 -75 -28 -32 -77 -242 -216 -327 -216 -47 0 -46 -7 -20 190 19 148 19 147
82 114 32 -16 69 -87 69 -131 0 -23 6 -33 21 -38 33 -11 57 22 74 100 19 90
19 125 -1 153 -23 33 -58 43 -150 43 l-82 0 -4 42 c-3 23 -4 71 -4 107 l1 65
40 -3 c115 -9 205 -62 226 -132 22 -72 72 -90 97 -34 19 41 35 159 28 207 -14
89 36 82 -572 82 -432 0 -540 -3 -551 -13z"/>
<path d="M6650 3285 c-16 -19 -5 -62 18 -69 9 -3 49 -8 87 -11 39 -4 76 -12
83 -19 19 -18 24 -642 6 -657 -8 -6 -51 -16 -96 -21 -92 -12 -108 -20 -108
-53 0 -12 6 -27 13 -32 7 -7 175 -10 447 -10 376 -1 437 2 453 15 42 37 -3 77
-100 87 -38 4 -75 11 -83 15 -13 7 -15 51 -14 330 1 258 4 324 15 331 7 4 43
11 79 15 88 9 122 40 85 78 -23 22 -867 23 -885 1z"/>
</g>
</svg>
